<mxfile host="Electron" modified="2025-07-02T13:54:28.707Z" agent="Mozilla/5.0 (Windows NT 10.0; Win64; x64) AppleWebKit/537.36 (KHTML, like Gecko) draw.io/22.0.2 Chrome/114.0.5735.289 Electron/25.8.4 Safari/537.36" etag="ae65FJl9pzdsoGds8xtu" version="22.0.2" type="device" pages="2">
  <diagram id="R2lEEEUBdFMjLlhIrx00" name="ERD_TravelHunter">
    <mxGraphModel dx="2268" dy="1920" grid="1" gridSize="10" guides="1" tooltips="1" connect="1" arrows="1" fold="1" page="1" pageScale="1" pageWidth="850" pageHeight="1100" math="0" shadow="0" extFonts="Permanent Marker^https://fonts.googleapis.com/css?family=Permanent+Marker">
      <root>
        <mxCell id="0" />
        <mxCell id="1" parent="0" />
        <mxCell id="1gfjdt9yKhyY12GKAk7O-2" value="hotelname&lt;br&gt;rating&lt;br&gt;price&lt;br&gt;locartion&lt;br&gt;description&lt;br&gt;link&lt;br&gt;&lt;br&gt;activities&lt;br&gt;coordinaten (lang, long)&lt;br&gt;duration&lt;br&gt;catgeory (activiteis)rating&lt;br&gt;price&lt;br&gt;locartion&lt;br&gt;description&lt;br&gt;link&lt;br&gt;&lt;br&gt;Google&lt;br&gt;coordinaten&lt;br&gt;ratings, total raitings&lt;br&gt;&lt;br&gt;sourcedestination (lonely planet)&lt;br&gt;rating&lt;br&gt;price&lt;br&gt;locartion&lt;br&gt;description&lt;br&gt;link" style="whiteSpace=wrap;html=1;aspect=fixed;" vertex="1" parent="1">
          <mxGeometry x="110" y="-180" width="600" height="600" as="geometry" />
        </mxCell>
        <mxCell id="1gfjdt9yKhyY12GKAk7O-3" value="Travel_Reason" style="rounded=0;whiteSpace=wrap;html=1;" vertex="1" parent="1">
          <mxGeometry x="60" y="700" width="120" height="60" as="geometry" />
        </mxCell>
        <mxCell id="1gfjdt9yKhyY12GKAk7O-4" value="Destination" style="rounded=0;whiteSpace=wrap;html=1;" vertex="1" parent="1">
          <mxGeometry x="-405" y="690" width="120" height="60" as="geometry" />
        </mxCell>
        <mxCell id="1gfjdt9yKhyY12GKAk7O-26" style="rounded=0;orthogonalLoop=1;jettySize=auto;html=1;" edge="1" parent="1" source="1gfjdt9yKhyY12GKAk7O-5" target="1gfjdt9yKhyY12GKAk7O-3">
          <mxGeometry relative="1" as="geometry" />
        </mxCell>
        <mxCell id="1gfjdt9yKhyY12GKAk7O-27" value="ISA" style="edgeLabel;html=1;align=center;verticalAlign=middle;resizable=0;points=[];" vertex="1" connectable="0" parent="1gfjdt9yKhyY12GKAk7O-26">
          <mxGeometry x="-0.3311" y="3" relative="1" as="geometry">
            <mxPoint x="1" as="offset" />
          </mxGeometry>
        </mxCell>
        <mxCell id="1gfjdt9yKhyY12GKAk7O-5" value="Hotel" style="rounded=0;whiteSpace=wrap;html=1;" vertex="1" parent="1">
          <mxGeometry x="20" y="890" width="120" height="60" as="geometry" />
        </mxCell>
        <mxCell id="1gfjdt9yKhyY12GKAk7O-16" style="rounded=0;orthogonalLoop=1;jettySize=auto;html=1;entryX=0;entryY=0.25;entryDx=0;entryDy=0;endArrow=none;endFill=0;" edge="1" parent="1" source="1gfjdt9yKhyY12GKAk7O-7" target="1gfjdt9yKhyY12GKAk7O-3">
          <mxGeometry relative="1" as="geometry" />
        </mxCell>
        <mxCell id="1gfjdt9yKhyY12GKAk7O-7" value="Name" style="ellipse;whiteSpace=wrap;html=1;" vertex="1" parent="1">
          <mxGeometry x="10" y="620" width="50" height="40" as="geometry" />
        </mxCell>
        <mxCell id="1gfjdt9yKhyY12GKAk7O-15" style="rounded=0;orthogonalLoop=1;jettySize=auto;html=1;endArrow=none;endFill=0;" edge="1" parent="1" source="1gfjdt9yKhyY12GKAk7O-8" target="1gfjdt9yKhyY12GKAk7O-3">
          <mxGeometry relative="1" as="geometry" />
        </mxCell>
        <mxCell id="1gfjdt9yKhyY12GKAk7O-8" value="Price" style="ellipse;whiteSpace=wrap;html=1;" vertex="1" parent="1">
          <mxGeometry x="200" y="610" width="50" height="40" as="geometry" />
        </mxCell>
        <mxCell id="1gfjdt9yKhyY12GKAk7O-17" style="rounded=0;orthogonalLoop=1;jettySize=auto;html=1;endArrow=none;endFill=0;" edge="1" parent="1" source="1gfjdt9yKhyY12GKAk7O-9" target="1gfjdt9yKhyY12GKAk7O-3">
          <mxGeometry relative="1" as="geometry" />
        </mxCell>
        <mxCell id="1gfjdt9yKhyY12GKAk7O-9" value="Address" style="ellipse;whiteSpace=wrap;html=1;" vertex="1" parent="1">
          <mxGeometry x="130" y="610" width="50" height="40" as="geometry" />
        </mxCell>
        <mxCell id="1gfjdt9yKhyY12GKAk7O-18" style="rounded=0;orthogonalLoop=1;jettySize=auto;html=1;entryX=0.25;entryY=0;entryDx=0;entryDy=0;endArrow=none;endFill=0;" edge="1" parent="1" source="1gfjdt9yKhyY12GKAk7O-13" target="1gfjdt9yKhyY12GKAk7O-3">
          <mxGeometry relative="1" as="geometry" />
        </mxCell>
        <mxCell id="1gfjdt9yKhyY12GKAk7O-13" value="Description" style="ellipse;whiteSpace=wrap;html=1;" vertex="1" parent="1">
          <mxGeometry x="75" y="610" width="50" height="40" as="geometry" />
        </mxCell>
        <mxCell id="1gfjdt9yKhyY12GKAk7O-25" style="rounded=0;orthogonalLoop=1;jettySize=auto;html=1;entryX=0.75;entryY=0;entryDx=0;entryDy=0;endArrow=none;endFill=0;" edge="1" parent="1" source="1gfjdt9yKhyY12GKAk7O-19" target="1gfjdt9yKhyY12GKAk7O-21">
          <mxGeometry relative="1" as="geometry" />
        </mxCell>
        <mxCell id="1gfjdt9yKhyY12GKAk7O-19" value="Category" style="ellipse;whiteSpace=wrap;html=1;" vertex="1" parent="1">
          <mxGeometry x="340" y="880" width="50" height="40" as="geometry" />
        </mxCell>
        <mxCell id="1gfjdt9yKhyY12GKAk7O-20" value="Duration" style="ellipse;whiteSpace=wrap;html=1;" vertex="1" parent="1">
          <mxGeometry x="320" y="930" width="50" height="40" as="geometry" />
        </mxCell>
        <mxCell id="1gfjdt9yKhyY12GKAk7O-23" style="rounded=0;orthogonalLoop=1;jettySize=auto;html=1;entryX=0.5;entryY=1;entryDx=0;entryDy=0;" edge="1" parent="1" source="1gfjdt9yKhyY12GKAk7O-21" target="1gfjdt9yKhyY12GKAk7O-3">
          <mxGeometry relative="1" as="geometry" />
        </mxCell>
        <mxCell id="1gfjdt9yKhyY12GKAk7O-28" value="ISA" style="edgeLabel;html=1;align=center;verticalAlign=middle;resizable=0;points=[];" vertex="1" connectable="0" parent="1gfjdt9yKhyY12GKAk7O-23">
          <mxGeometry x="-0.1732" y="-1" relative="1" as="geometry">
            <mxPoint as="offset" />
          </mxGeometry>
        </mxCell>
        <mxCell id="1gfjdt9yKhyY12GKAk7O-21" value="Activity" style="rounded=0;whiteSpace=wrap;html=1;" vertex="1" parent="1">
          <mxGeometry x="165" y="890" width="120" height="60" as="geometry" />
        </mxCell>
        <mxCell id="1gfjdt9yKhyY12GKAk7O-24" style="rounded=0;orthogonalLoop=1;jettySize=auto;html=1;entryX=1;entryY=0.4;entryDx=0;entryDy=0;entryPerimeter=0;endArrow=none;endFill=0;" edge="1" parent="1" source="1gfjdt9yKhyY12GKAk7O-20" target="1gfjdt9yKhyY12GKAk7O-21">
          <mxGeometry relative="1" as="geometry" />
        </mxCell>
        <mxCell id="1gfjdt9yKhyY12GKAk7O-30" style="rounded=0;orthogonalLoop=1;jettySize=auto;html=1;entryX=1;entryY=0.5;entryDx=0;entryDy=0;endArrow=none;endFill=0;" edge="1" parent="1" source="1gfjdt9yKhyY12GKAk7O-29" target="1gfjdt9yKhyY12GKAk7O-3">
          <mxGeometry relative="1" as="geometry" />
        </mxCell>
        <mxCell id="1gfjdt9yKhyY12GKAk7O-29" value="Rating" style="ellipse;whiteSpace=wrap;html=1;" vertex="1" parent="1">
          <mxGeometry x="270" y="650" width="50" height="40" as="geometry" />
        </mxCell>
        <mxCell id="1gfjdt9yKhyY12GKAk7O-42" style="edgeStyle=orthogonalEdgeStyle;rounded=0;orthogonalLoop=1;jettySize=auto;html=1;entryX=0.25;entryY=0;entryDx=0;entryDy=0;" edge="1" parent="1" source="1gfjdt9yKhyY12GKAk7O-32" target="1gfjdt9yKhyY12GKAk7O-4">
          <mxGeometry relative="1" as="geometry" />
        </mxCell>
        <mxCell id="1gfjdt9yKhyY12GKAk7O-32" value="Latitude" style="ellipse;whiteSpace=wrap;html=1;" vertex="1" parent="1">
          <mxGeometry x="-370" y="600" width="50" height="40" as="geometry" />
        </mxCell>
        <mxCell id="1gfjdt9yKhyY12GKAk7O-41" style="edgeStyle=orthogonalEdgeStyle;rounded=0;orthogonalLoop=1;jettySize=auto;html=1;" edge="1" parent="1" source="1gfjdt9yKhyY12GKAk7O-33" target="1gfjdt9yKhyY12GKAk7O-4">
          <mxGeometry relative="1" as="geometry" />
        </mxCell>
        <mxCell id="1gfjdt9yKhyY12GKAk7O-33" value="Longitude" style="ellipse;whiteSpace=wrap;html=1;" vertex="1" parent="1">
          <mxGeometry x="-300" y="600" width="50" height="40" as="geometry" />
        </mxCell>
        <mxCell id="1gfjdt9yKhyY12GKAk7O-37" style="rounded=0;orthogonalLoop=1;jettySize=auto;html=1;entryX=1;entryY=0.75;entryDx=0;entryDy=0;endArrow=none;endFill=0;" edge="1" parent="1" source="1gfjdt9yKhyY12GKAk7O-36" target="1gfjdt9yKhyY12GKAk7O-3">
          <mxGeometry relative="1" as="geometry" />
        </mxCell>
        <mxCell id="1gfjdt9yKhyY12GKAk7O-36" value="Link" style="ellipse;whiteSpace=wrap;html=1;" vertex="1" parent="1">
          <mxGeometry x="260" y="700" width="50" height="40" as="geometry" />
        </mxCell>
        <mxCell id="1gfjdt9yKhyY12GKAk7O-39" style="edgeStyle=orthogonalEdgeStyle;rounded=0;orthogonalLoop=1;jettySize=auto;html=1;" edge="1" parent="1" source="1gfjdt9yKhyY12GKAk7O-38" target="1gfjdt9yKhyY12GKAk7O-3">
          <mxGeometry relative="1" as="geometry" />
        </mxCell>
        <mxCell id="1gfjdt9yKhyY12GKAk7O-40" style="edgeStyle=orthogonalEdgeStyle;rounded=0;orthogonalLoop=1;jettySize=auto;html=1;" edge="1" parent="1" source="1gfjdt9yKhyY12GKAk7O-38" target="1gfjdt9yKhyY12GKAk7O-4">
          <mxGeometry relative="1" as="geometry" />
        </mxCell>
        <mxCell id="1gfjdt9yKhyY12GKAk7O-38" value="has" style="rhombus;whiteSpace=wrap;html=1;" vertex="1" parent="1">
          <mxGeometry x="-200" y="700" width="160" height="40" as="geometry" />
        </mxCell>
      </root>
    </mxGraphModel>
  </diagram>
  <diagram id="4Z9qK_A6pKWfbGSCZmDh" name="ER">
    <mxGraphModel dx="1418" dy="820" grid="1" gridSize="10" guides="1" tooltips="1" connect="1" arrows="1" fold="1" page="1" pageScale="1" pageWidth="827" pageHeight="1169" math="0" shadow="0">
      <root>
        <mxCell id="0" />
        <mxCell id="1" parent="0" />
        <mxCell id="zh1WVqATJB7FkaXTp-dd-1" value="Travel_Reason" style="rounded=0;whiteSpace=wrap;html=1;" vertex="1" parent="1">
          <mxGeometry x="481" y="150" width="120" height="60" as="geometry" />
        </mxCell>
        <mxCell id="zh1WVqATJB7FkaXTp-dd-2" value="Destination" style="rounded=0;whiteSpace=wrap;html=1;" vertex="1" parent="1">
          <mxGeometry x="16" y="140" width="120" height="60" as="geometry" />
        </mxCell>
        <mxCell id="zh1WVqATJB7FkaXTp-dd-3" style="rounded=0;orthogonalLoop=1;jettySize=auto;html=1;" edge="1" parent="1" source="zh1WVqATJB7FkaXTp-dd-5" target="zh1WVqATJB7FkaXTp-dd-1">
          <mxGeometry relative="1" as="geometry" />
        </mxCell>
        <mxCell id="zh1WVqATJB7FkaXTp-dd-4" value="ISA" style="edgeLabel;html=1;align=center;verticalAlign=middle;resizable=0;points=[];" vertex="1" connectable="0" parent="zh1WVqATJB7FkaXTp-dd-3">
          <mxGeometry x="-0.3311" y="3" relative="1" as="geometry">
            <mxPoint x="1" as="offset" />
          </mxGeometry>
        </mxCell>
        <mxCell id="zh1WVqATJB7FkaXTp-dd-5" value="Hotel" style="rounded=0;whiteSpace=wrap;html=1;" vertex="1" parent="1">
          <mxGeometry x="441" y="340" width="120" height="60" as="geometry" />
        </mxCell>
        <mxCell id="zh1WVqATJB7FkaXTp-dd-6" style="rounded=0;orthogonalLoop=1;jettySize=auto;html=1;entryX=0;entryY=0.25;entryDx=0;entryDy=0;endArrow=none;endFill=0;" edge="1" parent="1" source="zh1WVqATJB7FkaXTp-dd-7" target="zh1WVqATJB7FkaXTp-dd-1">
          <mxGeometry relative="1" as="geometry" />
        </mxCell>
        <mxCell id="zh1WVqATJB7FkaXTp-dd-7" value="Name" style="ellipse;whiteSpace=wrap;html=1;" vertex="1" parent="1">
          <mxGeometry x="431" y="70" width="50" height="40" as="geometry" />
        </mxCell>
        <mxCell id="zh1WVqATJB7FkaXTp-dd-8" style="rounded=0;orthogonalLoop=1;jettySize=auto;html=1;endArrow=none;endFill=0;" edge="1" parent="1" source="zh1WVqATJB7FkaXTp-dd-9" target="zh1WVqATJB7FkaXTp-dd-1">
          <mxGeometry relative="1" as="geometry" />
        </mxCell>
        <mxCell id="zh1WVqATJB7FkaXTp-dd-9" value="Price" style="ellipse;whiteSpace=wrap;html=1;" vertex="1" parent="1">
          <mxGeometry x="621" y="60" width="50" height="40" as="geometry" />
        </mxCell>
        <mxCell id="zh1WVqATJB7FkaXTp-dd-10" style="rounded=0;orthogonalLoop=1;jettySize=auto;html=1;endArrow=none;endFill=0;" edge="1" parent="1" source="zh1WVqATJB7FkaXTp-dd-11" target="zh1WVqATJB7FkaXTp-dd-1">
          <mxGeometry relative="1" as="geometry" />
        </mxCell>
        <mxCell id="zh1WVqATJB7FkaXTp-dd-11" value="Address" style="ellipse;whiteSpace=wrap;html=1;" vertex="1" parent="1">
          <mxGeometry x="551" y="60" width="50" height="40" as="geometry" />
        </mxCell>
        <mxCell id="zh1WVqATJB7FkaXTp-dd-12" style="rounded=0;orthogonalLoop=1;jettySize=auto;html=1;entryX=0.25;entryY=0;entryDx=0;entryDy=0;endArrow=none;endFill=0;" edge="1" parent="1" source="zh1WVqATJB7FkaXTp-dd-13" target="zh1WVqATJB7FkaXTp-dd-1">
          <mxGeometry relative="1" as="geometry" />
        </mxCell>
        <mxCell id="zh1WVqATJB7FkaXTp-dd-13" value="Description" style="ellipse;whiteSpace=wrap;html=1;" vertex="1" parent="1">
          <mxGeometry x="496" y="60" width="50" height="40" as="geometry" />
        </mxCell>
        <mxCell id="zh1WVqATJB7FkaXTp-dd-14" style="rounded=0;orthogonalLoop=1;jettySize=auto;html=1;entryX=0.75;entryY=0;entryDx=0;entryDy=0;endArrow=none;endFill=0;" edge="1" parent="1" source="zh1WVqATJB7FkaXTp-dd-15" target="zh1WVqATJB7FkaXTp-dd-19">
          <mxGeometry relative="1" as="geometry" />
        </mxCell>
        <mxCell id="zh1WVqATJB7FkaXTp-dd-15" value="Category" style="ellipse;whiteSpace=wrap;html=1;" vertex="1" parent="1">
          <mxGeometry x="761" y="330" width="50" height="40" as="geometry" />
        </mxCell>
        <mxCell id="zh1WVqATJB7FkaXTp-dd-16" value="Duration" style="ellipse;whiteSpace=wrap;html=1;" vertex="1" parent="1">
          <mxGeometry x="741" y="380" width="50" height="40" as="geometry" />
        </mxCell>
        <mxCell id="zh1WVqATJB7FkaXTp-dd-17" style="rounded=0;orthogonalLoop=1;jettySize=auto;html=1;entryX=0.5;entryY=1;entryDx=0;entryDy=0;" edge="1" parent="1" source="zh1WVqATJB7FkaXTp-dd-19" target="zh1WVqATJB7FkaXTp-dd-1">
          <mxGeometry relative="1" as="geometry" />
        </mxCell>
        <mxCell id="zh1WVqATJB7FkaXTp-dd-18" value="ISA" style="edgeLabel;html=1;align=center;verticalAlign=middle;resizable=0;points=[];" vertex="1" connectable="0" parent="zh1WVqATJB7FkaXTp-dd-17">
          <mxGeometry x="-0.1732" y="-1" relative="1" as="geometry">
            <mxPoint as="offset" />
          </mxGeometry>
        </mxCell>
        <mxCell id="zh1WVqATJB7FkaXTp-dd-19" value="Activity" style="rounded=0;whiteSpace=wrap;html=1;" vertex="1" parent="1">
          <mxGeometry x="586" y="340" width="120" height="60" as="geometry" />
        </mxCell>
        <mxCell id="zh1WVqATJB7FkaXTp-dd-20" style="rounded=0;orthogonalLoop=1;jettySize=auto;html=1;entryX=1;entryY=0.4;entryDx=0;entryDy=0;entryPerimeter=0;endArrow=none;endFill=0;" edge="1" parent="1" source="zh1WVqATJB7FkaXTp-dd-16" target="zh1WVqATJB7FkaXTp-dd-19">
          <mxGeometry relative="1" as="geometry" />
        </mxCell>
        <mxCell id="zh1WVqATJB7FkaXTp-dd-21" style="rounded=0;orthogonalLoop=1;jettySize=auto;html=1;entryX=1;entryY=0.5;entryDx=0;entryDy=0;endArrow=none;endFill=0;" edge="1" parent="1" source="zh1WVqATJB7FkaXTp-dd-22" target="zh1WVqATJB7FkaXTp-dd-1">
          <mxGeometry relative="1" as="geometry" />
        </mxCell>
        <mxCell id="zh1WVqATJB7FkaXTp-dd-22" value="Rating" style="ellipse;whiteSpace=wrap;html=1;" vertex="1" parent="1">
          <mxGeometry x="691" y="100" width="50" height="40" as="geometry" />
        </mxCell>
        <mxCell id="zh1WVqATJB7FkaXTp-dd-23" style="edgeStyle=orthogonalEdgeStyle;rounded=0;orthogonalLoop=1;jettySize=auto;html=1;entryX=0.25;entryY=0;entryDx=0;entryDy=0;" edge="1" parent="1" source="zh1WVqATJB7FkaXTp-dd-24" target="zh1WVqATJB7FkaXTp-dd-2">
          <mxGeometry relative="1" as="geometry" />
        </mxCell>
        <mxCell id="zh1WVqATJB7FkaXTp-dd-24" value="Latitude" style="ellipse;whiteSpace=wrap;html=1;" vertex="1" parent="1">
          <mxGeometry x="51" y="50" width="50" height="40" as="geometry" />
        </mxCell>
        <mxCell id="zh1WVqATJB7FkaXTp-dd-25" style="edgeStyle=orthogonalEdgeStyle;rounded=0;orthogonalLoop=1;jettySize=auto;html=1;" edge="1" parent="1" source="zh1WVqATJB7FkaXTp-dd-26" target="zh1WVqATJB7FkaXTp-dd-2">
          <mxGeometry relative="1" as="geometry" />
        </mxCell>
        <mxCell id="zh1WVqATJB7FkaXTp-dd-26" value="Longitude" style="ellipse;whiteSpace=wrap;html=1;" vertex="1" parent="1">
          <mxGeometry x="121" y="50" width="50" height="40" as="geometry" />
        </mxCell>
        <mxCell id="zh1WVqATJB7FkaXTp-dd-27" style="rounded=0;orthogonalLoop=1;jettySize=auto;html=1;entryX=1;entryY=0.75;entryDx=0;entryDy=0;endArrow=none;endFill=0;" edge="1" parent="1" source="zh1WVqATJB7FkaXTp-dd-28" target="zh1WVqATJB7FkaXTp-dd-1">
          <mxGeometry relative="1" as="geometry" />
        </mxCell>
        <mxCell id="zh1WVqATJB7FkaXTp-dd-28" value="Link" style="ellipse;whiteSpace=wrap;html=1;" vertex="1" parent="1">
          <mxGeometry x="681" y="150" width="50" height="40" as="geometry" />
        </mxCell>
        <mxCell id="zh1WVqATJB7FkaXTp-dd-29" style="edgeStyle=orthogonalEdgeStyle;rounded=0;orthogonalLoop=1;jettySize=auto;html=1;" edge="1" parent="1" source="zh1WVqATJB7FkaXTp-dd-31" target="zh1WVqATJB7FkaXTp-dd-1">
          <mxGeometry relative="1" as="geometry" />
        </mxCell>
        <mxCell id="zh1WVqATJB7FkaXTp-dd-30" style="edgeStyle=orthogonalEdgeStyle;rounded=0;orthogonalLoop=1;jettySize=auto;html=1;" edge="1" parent="1" source="zh1WVqATJB7FkaXTp-dd-31" target="zh1WVqATJB7FkaXTp-dd-2">
          <mxGeometry relative="1" as="geometry" />
        </mxCell>
        <mxCell id="zh1WVqATJB7FkaXTp-dd-31" value="has" style="rhombus;whiteSpace=wrap;html=1;" vertex="1" parent="1">
          <mxGeometry x="221" y="150" width="160" height="40" as="geometry" />
        </mxCell>
      </root>
    </mxGraphModel>
  </diagram>
</mxfile>
